<?xml version="1.0" encoding="iso-8859-1"?>
<!-- Generator: Adobe Illustrator 19.0.0, SVG Export Plug-In . SVG Version: 6.00 Build 0)  -->
<svg version="1.1" id="Layer_1" xmlns="http://www.w3.org/2000/svg" xmlns:xlink="http://www.w3.org/1999/xlink" x="0px" y="0px"
	 viewBox="0 0 512.002 512.002" style="enable-background:new 0 0 512.002 512.002;" xml:space="preserve">
<g>
	<path style="fill:#607D8B;" d="M59.747,136.544v-8.533c0-14.139,11.459-25.598,25.598-25.598h85.326"/>
	<path style="fill:#607D8B;" d="M443.715,136.544v-8.533c0-14.139-11.459-25.598-25.598-25.598h-85.326"/>
</g>
<path style="fill:#6A1B9A;" d="M475.798,343.119l-133.621,61.862c-6.51,3.063-13.627,4.633-20.82,4.608h-130.72
	c-7.193,0.026-14.309-1.544-20.82-4.608L36.197,343.119C16.06,334.1,4.994,312.205,9.661,290.643l25.598-116.982
	c2.389-10.623,8.422-20.077,17.065-26.707c8.763-6.843,19.599-10.512,30.717-10.41c7.739,0.017,15.367-1.8,22.27-5.29l46.929-23.55
	c6.903-3.498,14.531-5.316,22.27-5.29h162.973c7.739-0.026,15.367,1.792,22.27,5.29l46.929,23.55
	c6.903,3.49,14.531,5.307,22.27,5.29c22.518-0.205,42.177,15.205,47.356,37.117l25.598,116.982
	C506.644,312.094,495.773,333.955,475.798,343.119z"/>
<path style="fill:#9D27B0;" d="M441.668,343.119l-133.621,61.862c-6.51,3.063-13.627,4.633-20.82,4.608h-96.589
	c-7.193,0.026-14.309-1.544-20.82-4.608L36.197,343.119C16.06,334.1,4.994,312.205,9.661,290.643l25.598-116.982
	c2.389-10.623,8.422-20.077,17.065-26.707c8.763-6.843,19.599-10.512,30.717-10.41c7.739,0.017,15.367-1.8,22.27-5.29l46.929-23.55
	c6.903-3.498,14.531-5.316,22.27-5.29h128.843c7.739-0.026,15.367,1.792,22.27,5.29l46.929,23.55
	c6.903,3.49,14.531,5.307,22.27,5.29c22.518-0.205,42.177,15.205,47.356,37.117l25.598,116.982
	C472.513,312.094,461.643,333.955,441.668,343.119z"/>
<path style="fill:#1566C0;" d="M383.987,298.664l-17.065-131.573c-1.732-12.313-12.065-21.596-24.489-22.014H169.562
	c-12.423,0.418-22.757,9.702-24.489,22.014l-17.065,131.573c-2.986,21.673,15.615,45.906,36.264,51.196h183.11
	C368.031,344.57,386.718,320.337,383.987,298.664z"/>
<path style="fill:#2296F3;" d="M349.857,298.664l-14.676-131.573c-0.563-11.656-9.693-21.084-21.332-22.014H164.016
	c-11.664,0.887-20.845,10.324-21.417,22.014l-14.591,131.573c-1.689,22.057,10.973,42.706,31.4,51.196h158.792
	C338.73,341.455,351.512,320.781,349.857,298.664z"/>
<path d="M76.813,273.066c-4.71,0-8.533-3.823-8.533-8.533v-51.196c0-4.71,3.823-8.533,8.533-8.533c4.71,0,8.533,3.823,8.533,8.533
	v51.196C85.345,269.244,81.523,273.066,76.813,273.066z"/>
<path d="M102.411,247.468H51.215c-4.71,0-8.533-3.823-8.533-8.533c0-4.71,3.823-8.533,8.533-8.533h51.196
	c4.71,0,8.533,3.823,8.533,8.533C110.943,243.646,107.121,247.468,102.411,247.468z"/>
<path d="M230.4,187.74h-25.598c-4.71,0-8.533-3.823-8.533-8.533s3.823-8.533,8.533-8.533H230.4c4.71,0,8.533,3.823,8.533,8.533
	S235.11,187.74,230.4,187.74z"/>
<path d="M179.204,187.74c-2.261-0.034-4.42-0.913-6.058-2.474c-1.596-1.613-2.492-3.788-2.474-6.058
	c0.017-1.118,0.247-2.218,0.683-3.242c0.435-1.032,1.041-1.988,1.792-2.816c3.319-3.345,8.72-3.37,12.065-0.051
	c0.017,0.017,0.034,0.034,0.051,0.051c0.751,0.828,1.357,1.783,1.792,2.816c0.435,1.024,0.666,2.125,0.683,3.242
	c0.043,0.572,0.043,1.135,0,1.707c-0.094,0.538-0.265,1.05-0.512,1.536c-0.188,0.546-0.444,1.058-0.768,1.536
	c-0.316,0.444-0.657,0.87-1.024,1.28l-1.28,1.024c-0.478,0.324-0.99,0.58-1.536,0.768l-1.707,0.683L179.204,187.74L179.204,187.74z"
	/>
<path d="M315.726,281.599c-4.71,0-8.533-3.823-8.533-8.533v-8.533h-17.065v8.533c0,4.71-3.823,8.533-8.533,8.533
	s-8.533-3.823-8.533-8.533v-17.065c0-4.71,3.823-8.533,8.533-8.533h34.13c4.71,0,8.533,3.823,8.533,8.533v17.065
	C324.259,277.776,320.436,281.599,315.726,281.599z"/>
<path d="M298.661,264.534c-4.71,0-8.533-3.823-8.533-8.533v-25.598c0-4.71,3.823-8.533,8.533-8.533s8.533,3.823,8.533,8.533v25.598
	C307.194,260.711,303.371,264.534,298.661,264.534z"/>
<path d="M321.358,418.121h-130.72c-8.43-0.009-16.75-1.843-24.403-5.376L32.614,350.884C8.757,340.235-4.333,314.279,1.299,288.766
	l26.024-116.897c6.109-25.803,29.207-43.977,55.718-43.858c6.399,0,12.705-1.485,18.43-4.352l46.929-23.635
	c8.106-4.044,17.048-6.152,26.11-6.143h162.973c9.062-0.009,18.004,2.09,26.11,6.143l46.929,23.635
	c5.725,2.867,12.031,4.352,18.43,4.352c26.511-0.119,49.609,18.055,55.718,43.858l26.025,116.982
	c5.64,25.495-7.406,51.443-31.229,62.117l-133.706,61.776C338.107,416.269,329.788,418.104,321.358,418.121z M174.511,110.946
	c-6.399,0-12.705,1.485-18.43,4.352l-46.929,23.635c-8.106,4.053-17.048,6.152-26.11,6.143
	c-18.524-0.162-34.719,12.458-39.079,30.461L17.938,292.521c-3.729,17.577,5.341,35.359,21.758,42.663l133.621,61.862
	c5.358,2.457,11.178,3.737,17.065,3.754h130.976c5.888-0.017,11.707-1.297,17.065-3.754l133.621-61.862
	c16.417-7.304,25.487-25.086,21.758-42.663l-25.854-116.982c-4.352-17.97-20.504-30.589-38.994-30.461
	c-9.062,0.009-18.004-2.09-26.11-6.143l-46.929-23.635c-5.725-2.867-12.031-4.352-18.43-4.352L174.511,110.946L174.511,110.946z"/>
<path d="M347.382,358.392H164.613c-0.819,0.119-1.655,0.119-2.474,0c-26.571-7.876-44.242-32.996-42.663-60.667l17.065-131.744
	c2.295-16.587,16.28-29.054,33.021-29.438h172.871c16.707,0.375,30.683,12.799,33.021,29.352l17.065,131.658
	c1.655,27.731-16.024,52.945-42.663,60.838C349.038,358.512,348.201,358.512,347.382,358.392z M165.723,341.327h180.55
	c17.773-5.913,29.617-22.739,29.182-41.469l0,0l-17.065-131.744c-1.22-8.097-8.029-14.19-16.212-14.505H169.562
	c-8.115,0.444-14.787,6.545-15.956,14.591l-17.065,131.573C136.072,318.537,147.915,335.397,165.723,341.327z"/>
<path d="M93.878,324.262h-8.533c-4.71,0-8.533-3.823-8.533-8.533s3.823-8.533,8.533-8.533h8.533c4.71,0,8.533,3.823,8.533,8.533
	S98.588,324.262,93.878,324.262z"/>
<path d="M401.052,187.74h-1.707l-1.536-0.512c-0.521-0.171-1.015-0.427-1.451-0.768l-1.365-1.024
	c-1.638-1.655-2.534-3.899-2.474-6.229c0.017-1.118,0.247-2.218,0.683-3.242c0.435-1.032,1.041-1.988,1.792-2.816
	c3.319-3.345,8.72-3.37,12.065-0.051c0.017,0.017,0.034,0.034,0.051,0.051c0.751,0.828,1.357,1.783,1.792,2.816
	c0.435,1.024,0.666,2.125,0.683,3.242c0.043,0.572,0.043,1.135,0,1.707c-0.094,0.538-0.264,1.05-0.512,1.536
	c-0.188,0.546-0.444,1.058-0.768,1.536c-0.316,0.444-0.657,0.87-1.024,1.28C405.609,186.861,403.373,187.749,401.052,187.74z"/>
<path d="M418.118,264.534h-8.533c-4.71,0-8.533-3.823-8.533-8.533c0-4.71,3.823-8.533,8.533-8.533h8.533
	c4.71,0,8.533,3.823,8.533,8.533C426.65,260.711,422.828,264.534,418.118,264.534z"/>
<path d="M460.781,264.534h-8.533c-4.71,0-8.533-3.823-8.533-8.533c0-4.71,3.823-8.533,8.533-8.533h8.533
	c4.71,0,8.533,3.823,8.533,8.533C469.313,260.711,465.491,264.534,460.781,264.534z"/>
<path d="M341.324,315.729H170.672c-4.71,0-8.533-3.823-8.533-8.533s3.823-8.533,8.533-8.533h170.652c4.71,0,8.533,3.823,8.533,8.533
	S346.034,315.729,341.324,315.729z"/>
<path d="M59.747,145.077c-4.71,0-8.533-3.823-8.533-8.533v-8.533c0-18.849,15.282-34.13,34.13-34.13h85.326
	c4.71,0,8.533,3.823,8.533,8.533s-3.823,8.533-8.533,8.533H85.345c-9.429,0-17.065,7.637-17.065,17.065v8.533
	C68.28,141.254,64.457,145.077,59.747,145.077z"/>
<path d="M443.715,145.077c-4.71,0-8.533-3.823-8.533-8.533v-8.533c0-9.429-7.637-17.065-17.065-17.065h-85.326
	c-4.71,0-8.533-3.823-8.533-8.533s3.823-8.533,8.533-8.533h85.326c18.849,0,34.13,15.282,34.13,34.13v8.533
	C452.248,141.254,448.426,145.077,443.715,145.077z"/>
<g>
</g>
<g>
</g>
<g>
</g>
<g>
</g>
<g>
</g>
<g>
</g>
<g>
</g>
<g>
</g>
<g>
</g>
<g>
</g>
<g>
</g>
<g>
</g>
<g>
</g>
<g>
</g>
<g>
</g>
</svg>
